<svg width="32" height="32" viewBox="0 0 32 32" fill="none" xmlns="http://www.w3.org/2000/svg">
<g clip-path="url(#clip0_2645_1302)">
<g clip-path="url(#clip1_2645_1302)">
<g clip-path="url(#clip2_2645_1302)">
<path d="M11.2754 21.6055H20.7247V26.3301H11.2754V21.6055Z" fill="#E74040"/>
<path d="M15.9997 3.65234C10.2683 3.65234 5.60547 8.31527 5.60547 14.0466V28.2206C5.60547 30.3047 7.30105 32.0003 9.3852 32.0003H22.6142C24.6984 32.0003 26.394 30.3047 26.394 28.2206V14.0466C26.394 8.31521 21.7312 3.65234 15.9997 3.65234ZM10.3301 12.1567H21.6693V14.0466H19.7795V15.9365H17.8896V14.0466H10.3301V12.1567ZM22.6142 28.2206H9.3852V19.7162H22.6142V28.2206Z" fill="#E74040"/>
<path d="M25.7042 1.83877L20.3411 0L19.5566 2.288C21.4519 2.86245 23.1545 3.88336 24.5422 5.22799L25.7042 1.83877Z" fill="#E74040"/>
<path d="M12.4425 2.288L11.658 0L6.29492 1.83877L7.45694 5.22799C8.8446 3.88342 10.5473 2.86245 12.4425 2.288Z" fill="#E74040"/>
</g>
</g>
</g>
<defs>
<clipPath id="clip0_2645_1302">
<rect width="32" height="32" fill="white"/>
</clipPath>
<clipPath id="clip1_2645_1302">
<rect width="32" height="32" fill="white"/>
</clipPath>
<clipPath id="clip2_2645_1302">
<rect width="20.7885" height="32" fill="white" transform="translate(5.60547)"/>
</clipPath>
</defs>
</svg>
