<svg width="28" height="32" viewBox="0 0 28 32" fill="none" xmlns="http://www.w3.org/2000/svg">
<path d="M4.61386 25.5456H26.4113C26.478 25.5456 26.5427 25.5361 26.6048 25.5213C26.6098 25.5213 26.6139 25.5221 26.6188 25.5221C27.0841 25.5221 27.4622 25.1445 27.4622 24.6788V0.843336C27.4622 0.377812 27.0841 0 26.6188 0H26.413H5.96264H4.61504C2.37033 0 0.544461 1.82629 0.544461 4.07037C0.544461 4.10047 0.550383 4.12904 0.553309 4.15809C0.550383 6.23107 0.524675 25.2792 0.550383 27.7833C0.54878 27.8322 0.542789 27.88 0.542789 27.9295C0.542789 30.0873 2.23239 31.8538 4.35762 31.9873C4.40026 31.9939 4.44206 32.0001 4.4863 32.0001H26.6188C27.0841 32.0001 27.4621 31.6225 27.4621 31.1567V27.9823C27.4621 27.5169 27.084 27.139 26.6188 27.139C26.1535 27.139 25.7754 27.517 25.7754 27.9823V30.3135H4.61386C3.33231 30.3135 2.28617 29.296 2.23475 28.0272C2.23601 28.0045 2.24012 27.9831 2.2397 27.9601C2.23887 27.923 2.23761 27.8654 2.23678 27.7888C2.31048 26.54 3.34694 25.5456 4.61386 25.5456ZM5.1889 4.07037C5.1889 3.60485 5.56671 3.22704 6.03224 3.22704C6.49776 3.22704 6.87557 3.60485 6.87557 4.07037V21.2008C6.87557 21.6661 6.49776 22.0441 6.03224 22.0441C5.56671 22.0441 5.1889 21.666 5.1889 21.2008V4.07037Z" fill="#E74040"/>
</svg>
