<svg width="32" height="32" viewBox="0 0 32 32" fill="none" xmlns="http://www.w3.org/2000/svg">
<g clip-path="url(#clip0_2645_1313)">
<g clip-path="url(#clip1_2645_1313)">
<g clip-path="url(#clip2_2645_1313)">
<g clip-path="url(#clip3_2645_1313)">
<path d="M4.89589 3.77539C4.89503 3.77539 4.89406 3.77539 4.8932 3.77539C4.59054 3.77539 4.30588 3.89337 4.09093 4.10778C3.87361 4.32456 3.75391 4.61321 3.75391 4.9205V22.0912C3.75391 22.7209 4.26817 23.2344 4.90042 23.236C7.5658 23.2423 12.0314 23.7979 15.112 27.0217V9.05207C15.112 8.83863 15.0575 8.63811 14.9546 8.47219C12.4262 4.40031 7.56731 3.78164 4.89589 3.77539Z" fill="#E74040"/>
<path d="M28.2467 22.0913V4.9205C28.2467 4.61321 28.127 4.32456 27.9096 4.10778C27.6947 3.89337 27.4098 3.77539 27.1075 3.77539C27.1065 3.77539 27.1055 3.77539 27.1047 3.77539C24.4334 3.78175 19.5745 4.40042 17.046 8.4723C16.9431 8.63822 16.8887 8.83873 16.8887 9.05218V27.0217C19.9693 23.7979 24.4349 23.2423 27.1003 23.236C27.7324 23.2344 28.2467 22.7209 28.2467 22.0913Z" fill="#E74040"/>
<path d="M30.8554 7.73438H30.0252V22.0904C30.0252 23.698 28.7153 25.0089 27.1052 25.0129C24.8444 25.0183 21.1166 25.4604 18.4766 27.9591C23.0426 26.8411 27.8559 27.5679 30.5991 28.193C30.9416 28.271 31.2956 28.1904 31.57 27.9717C31.8434 27.7535 32.0003 27.4274 32.0003 27.0773V8.87927C32.0004 8.24799 31.4867 7.73438 30.8554 7.73438Z" fill="#E74040"/>
<path d="M1.97517 22.0904V7.73438H1.14489C0.513726 7.73438 0 8.24799 0 8.87927V27.077C0 27.4272 0.156876 27.7532 0.430331 27.9714C0.704541 28.19 1.05816 28.2709 1.40122 28.1927C4.14439 27.5674 8.95788 26.8408 13.5237 27.9588C10.8837 25.4602 7.15596 25.0182 4.89515 25.0128C3.28513 25.0089 1.97517 23.698 1.97517 22.0904Z" fill="#E74040"/>
</g>
</g>
</g>
</g>
<defs>
<clipPath id="clip0_2645_1313">
<rect width="32" height="32" fill="white"/>
</clipPath>
<clipPath id="clip1_2645_1313">
<rect width="32" height="24.4476" fill="white" transform="translate(0 3.77539)"/>
</clipPath>
<clipPath id="clip2_2645_1313">
<rect width="32" height="24.4476" fill="white" transform="translate(0 3.77539)"/>
</clipPath>
<clipPath id="clip3_2645_1313">
<rect width="32" height="24.4476" fill="white" transform="translate(0 3.77539)"/>
</clipPath>
</defs>
</svg>
